<svg t="1745222999065" class="icon" viewBox="0 0 1024 1024" version="1.1" xmlns="http://www.w3.org/2000/svg" p-id="9848" width="200" height="200"><path d="M654.7456 646.5536c5.4784-17.408 3.6864-34.7648-5.4784-45.2096s-22.016-17.408-38.5024-19.1488l-318.976-3.4816c-1.8432 0-3.6864-1.7408-5.4784-1.7408-1.8432-1.7408-1.8432-3.4816 0-5.2224 1.8432-3.4816 3.6864-5.2224 7.3216-5.2224l320.8192-3.4816c38.5024-1.7408 78.848-31.2832 93.4912-66.048l18.3296-45.2096c0-1.7408 1.8432-3.4816 0-5.2224C706.048 357.888 621.7216 291.84 522.752 291.84c-91.648 0-170.496 55.6544-197.9904 133.888-18.3296-12.1856-40.3456-19.1488-65.9968-17.408-43.9808 3.4816-78.848 38.2464-84.3264 79.9744-1.8432 10.4448 0 20.8896 1.8432 31.2832C104.7552 521.3696 46.08 576.9728 46.08 646.5536c0 6.9632 0 12.1856 1.8432 19.1488 0 3.4816 3.6864 5.2224 5.4784 5.2224h588.4928c3.6864 0 7.3216-1.7408 7.3216-5.2224l5.5296-19.1488z" fill="#F48120" p-id="9849"></path><path d="M764.7232 460.8h-10.7008c-2.1504 0-4.2496 1.6896-6.4 3.4304l-14.9504 41.1136c-6.4 17.1008-4.2496 34.2528 6.4 44.4928s25.6512 17.1008 44.8512 18.8416l79.0528 3.4304c2.1504 0 4.2496 1.6896 6.4 1.6896 2.1504 1.6896 2.1504 3.4304 0 5.12-2.1504 3.4304-4.2496 5.12-8.5504 5.12l-81.2032 3.4304c-44.8512 1.6896-91.8528 30.8224-108.9536 65.0752l-4.2496 15.4112c-2.1504 1.6896 0 5.12 4.2496 5.12h282.0096c4.2496 0 6.4-1.6896 6.4-5.12 4.2496-13.7216 8.5504-29.1328 8.5504-44.4928C967.68 534.4256 875.8272 460.8 764.7232 460.8" fill="#FAAD3F" p-id="9850"></path></svg>