<svg t="1745820614613" class="icon" viewBox="0 0 1024 1024" version="1.1" xmlns="http://www.w3.org/2000/svg" p-id="7841" width="200" height="200"><path d="M810.666667 981.333333H213.333333c-46.933333 0-85.333333-38.4-85.333333-85.333333V213.333333c0-46.933333 38.4-85.333333 85.333333-85.333333h179.2c17.066667-51.2 68.266667-85.333333 119.466667-85.333333 55.466667 0 102.4 34.133333 119.466667 85.333333H810.666667c46.933333 0 85.333333 38.4 85.333333 85.333333v682.666667c0 46.933333-38.4 85.333333-85.333333 85.333333zM337.066667 576l-42.666667 42.666667c-25.6 25.6-42.666667 59.733333-38.4 98.133333 0 38.4 12.8 72.533333 38.4 98.133333 25.6 25.6 59.733333 42.666667 98.133333 42.666667 38.4 0 72.533333-12.8 98.133334-42.666667l98.133333-98.133333c55.466667-55.466667 55.466667-140.8 0-196.266667-4.266667-8.533333-8.533333-8.533333-17.066667-8.533333s-12.8 4.266667-21.333333 8.533333c-4.266667 4.266667-8.533333 12.8-8.533333 21.333334s4.266667 12.8 8.533333 21.333333c17.066667 17.066667 25.6 38.4 25.6 59.733333 0 21.333333-8.533333 42.666667-25.6 59.733334l-98.133333 98.133333c-17.066667 17.066667-38.4 25.6-59.733334 25.6-21.333333 0-42.666667-8.533333-59.733333-25.6-17.066667-17.066667-25.6-38.4-25.6-59.733333 0-21.333333 8.533333-42.666667 25.6-59.733334l12.8-12.8c-4.266667-25.6-8.533333-51.2-8.533333-72.533333zM631.466667 341.333333c-38.4 0-72.533333 12.8-98.133334 42.666667l-98.133333 98.133333c-25.6 25.6-42.666667 59.733333-38.4 98.133334 0 38.4 12.8 72.533333 38.4 98.133333 4.266667 4.266667 12.8 8.533333 21.333333 8.533333s12.8-4.266667 21.333334-8.533333c4.266667-4.266667 8.533333-12.8 8.533333-21.333333s-4.266667-12.8-8.533333-21.333334c-17.066667-17.066667-25.6-38.4-25.6-59.733333 0-21.333333 8.533333-42.666667 25.6-59.733333l98.133333-98.133334c17.066667-17.066667 38.4-25.6 59.733333-25.6 21.333333 0 42.666667 8.533333 59.733334 25.6 17.066667 17.066667 25.6 38.4 25.6 59.733334 0 21.333333-8.533333 42.666667-25.6 59.733333l-12.8 12.8c8.533333 21.333333 12.8 42.666667 12.8 68.266667l42.666666-42.666667c25.6-25.6 42.666667-59.733333 38.4-98.133333 0-38.4-12.8-72.533333-38.4-98.133334-38.4-25.6-72.533333-38.4-106.666666-38.4zM512 128c-25.6 0-42.666667 17.066667-42.666667 42.666667s17.066667 42.666667 42.666667 42.666666 42.666667-17.066667 42.666667-42.666666-17.066667-42.666667-42.666667-42.666667z" p-id="7842"></path></svg>