<svg t="1742781416036" class="icon" viewBox="0 0 1024 1024" version="1.1" xmlns="http://www.w3.org/2000/svg" p-id="3332" width="200" height="200"><path d="M512 832a42.688 42.688 0 0 1 42.688 42.688v64a42.688 42.688 0 1 1-85.376 0v-64A42.688 42.688 0 0 1 512 832z m286.592-93.696l45.248 45.184a42.688 42.688 0 1 1-60.288 60.416l-45.248-45.312a42.88 42.88 0 0 1-0.512-60.8 42.752 42.752 0 0 1 60.8 0.512z m-512.896 0a42.688 42.688 0 0 1 0 60.288l-45.184 45.248a42.688 42.688 0 0 1-60.416-60.288l45.312-45.248a42.688 42.688 0 0 1 60.288 0zM512 213.312a298.688 298.688 0 1 1 0 597.376 298.688 298.688 0 0 1 0-597.376z m0 85.376a213.312 213.312 0 1 0 0 426.624 213.312 213.312 0 0 0 0-426.624z m426.688 170.624a42.688 42.688 0 1 1 0 85.376h-64a42.688 42.688 0 0 1 0-85.376h64z m-789.376 0a42.688 42.688 0 0 1 0 85.376h-64a42.688 42.688 0 0 1 0-85.376h64z m694.528-289.152a42.688 42.688 0 0 1 0 60.288l-45.248 45.248a42.624 42.624 0 1 1-60.288-60.288l45.184-45.248a42.688 42.688 0 0 1 60.416 0z m-603.392 0l45.248 45.248a42.688 42.688 0 1 1-60.288 60.288l-45.248-45.184a42.688 42.688 0 1 1 60.288-60.416zM512 42.688a42.688 42.688 0 0 1 42.688 42.624v64a42.688 42.688 0 0 1-85.376 0v-64A42.688 42.688 0 0 1 512 42.688z" p-id="3333" fill="#ffffff"></path></svg>